<svg width="26" height="26" viewBox="0 0 26 26" fill="none" xmlns="http://www.w3.org/2000/svg">
<path d="M19.94 7.62024C20.8016 7.62024 21.5 6.92181 21.5 6.06024C21.5 5.19868 20.8016 4.50024 19.94 4.50024C19.0784 4.50024 18.38 5.19868 18.38 6.06024C18.38 6.92181 19.0784 7.62024 19.94 7.62024Z" fill="#433E4C"/>
<path d="M13.0001 6.32458C11.6798 6.32458 10.3892 6.7161 9.29138 7.44961C8.1936 8.18312 7.33798 9.22569 6.83273 10.4455C6.32748 11.6653 6.19528 13.0075 6.45286 14.3024C6.71043 15.5973 7.34621 16.7868 8.2798 17.7204C9.21338 18.654 10.4028 19.2897 11.6978 19.5473C12.9927 19.8049 14.3349 19.6727 15.5547 19.1674C16.7745 18.6622 17.8171 17.8066 18.5506 16.7088C19.2841 15.611 19.6756 14.3204 19.6756 13.0001C19.6756 11.2296 18.9723 9.53169 17.7204 8.27979C16.4685 7.02789 14.7705 6.32458 13.0001 6.32458ZM13.0001 17.3334C12.143 17.3334 11.3052 17.0793 10.5926 16.6031C9.88 16.127 9.32459 15.4502 8.99661 14.6584C8.66863 13.8666 8.58282 12.9953 8.75002 12.1547C8.91722 11.3141 9.32993 10.542 9.93596 9.93596C10.542 9.32993 11.3141 8.91722 12.1547 8.75001C12.9953 8.58281 13.8666 8.66863 14.6584 8.99661C15.4502 9.32459 16.127 9.88 16.6031 10.5926C17.0793 11.3052 17.3334 12.143 17.3334 13.0001C17.3334 14.1494 16.8769 15.2516 16.0642 16.0642C15.2516 16.8769 14.1494 17.3334 13.0001 17.3334Z" fill="#433E4C"/>
<path d="M13 2.34217C16.471 2.34217 16.8827 2.35517 18.2531 2.418C19.0773 2.42779 19.8938 2.57913 20.6668 2.86542C21.2276 3.08175 21.7369 3.41309 22.1619 3.83812C22.5869 4.26315 22.9183 4.77245 23.1346 5.33325C23.4209 6.10624 23.5722 6.92267 23.582 7.74692C23.6448 9.11733 23.6578 9.529 23.6578 13.0011C23.6578 16.4732 23.6448 16.8827 23.582 18.2531C23.5722 19.0773 23.4209 19.8938 23.1346 20.6668C22.9183 21.2276 22.5869 21.7369 22.1619 22.1619C21.7369 22.5869 21.2276 22.9183 20.6668 23.1346C19.8938 23.4209 19.0773 23.5722 18.2531 23.582C16.8827 23.6448 16.471 23.6578 13 23.6578C9.529 23.6578 9.11733 23.6448 7.74692 23.582C6.92267 23.5722 6.10624 23.4209 5.33325 23.1346C4.77245 22.9183 4.26315 22.5869 3.83812 22.1619C3.41309 21.7369 3.08175 21.2276 2.86542 20.6668C2.57913 19.8938 2.42779 19.0773 2.418 18.2531C2.35517 16.8827 2.34217 16.471 2.34217 13C2.34217 9.529 2.35517 9.11733 2.418 7.74692C2.42779 6.92267 2.57913 6.10624 2.86542 5.33325C3.08175 4.77245 3.41309 4.26315 3.83812 3.83812C4.26315 3.41309 4.77245 3.08175 5.33325 2.86542C6.10624 2.57913 6.92267 2.42779 7.74692 2.418C9.11733 2.35517 9.529 2.34217 13 2.34217M13 0C9.46942 0 9.02633 0.0151667 7.63967 0.078C6.56151 0.0997708 5.49484 0.304167 4.485 0.6825C3.62128 1.01649 2.83688 1.52726 2.18207 2.18207C1.52726 2.83688 1.01649 3.62128 0.6825 4.485C0.304047 5.49518 0.0996487 6.56222 0.078 7.64075C0.0151667 9.02742 0 9.46833 0 13C0 16.5317 0.0151667 16.9737 0.078 18.3603C0.0997708 19.4385 0.304167 20.5052 0.6825 21.515C1.01649 22.3787 1.52726 23.1631 2.18207 23.8179C2.83688 24.4727 3.62128 24.9835 4.485 25.3175C5.49518 25.696 6.56222 25.9004 7.64075 25.922C9.02742 25.9848 9.46942 26 13 26C16.5306 26 16.9737 25.9848 18.3603 25.922C19.4389 25.9004 20.5059 25.696 21.5161 25.3175C22.3798 24.9835 23.1642 24.4727 23.819 23.8179C24.4738 23.1631 24.9846 22.3787 25.3186 21.515C25.6967 20.5048 25.9007 19.4377 25.922 18.3593C25.9848 16.9726 26 16.5317 26 13C26 9.46833 25.9848 9.02633 25.922 7.63967C25.9002 6.56151 25.6958 5.49484 25.3175 4.485C24.9835 3.62128 24.4727 2.83688 23.8179 2.18207C23.1631 1.52726 22.3787 1.01649 21.515 0.6825C20.5048 0.304416 19.4377 0.100385 18.3593 0.0790833C16.9726 0.0140833 16.5317 0 13 0Z" fill="#433E4C"/>
</svg>
