<svg width="27" height="23" viewBox="0 0 27 23" fill="none" xmlns="http://www.w3.org/2000/svg">
<path d="M25.8214 0.238159H1.67857C1.16496 0.238159 0.75 0.685034 0.75 1.23816V21.2382C0.75 21.7913 1.16496 22.2382 1.67857 22.2382H25.8214C26.335 22.2382 26.75 21.7913 26.75 21.2382V1.23816C26.75 0.685034 26.335 0.238159 25.8214 0.238159ZM24.6607 3.70066V19.9882H2.83929V3.70066L2.03839 3.02878L3.17879 1.45066L4.42076 2.49128H23.0821L24.3241 1.45066L25.4645 3.02878L24.6607 3.70066V3.70066ZM23.0821 2.48816L13.75 10.3007L4.41786 2.48816L3.17589 1.44753L2.03549 3.02566L2.83638 3.69753L12.7489 11.9975C13.034 12.236 13.3847 12.3655 13.7456 12.3655C14.1066 12.3655 14.4573 12.236 14.7424 11.9975L24.6607 3.70066L25.4616 3.02878L24.3212 1.45066L23.0821 2.48816Z" fill="#433E4C"/>
</svg>
