<svg width="282" height="208" viewBox="0 0 282 208" fill="none" xmlns="http://www.w3.org/2000/svg">
<g filter="url(#filter0_d_404_1086)">
<rect x="4" y="15.5964" width="274" height="184.404" rx="20" fill="url(#paint0_linear_404_1086)"/>
</g>
<path d="M29.3032 70.948C29.3032 69.2591 30.9216 67.8899 32.918 67.8899H65.451C67.4474 67.8899 69.0658 69.2591 69.0658 70.948V93.578C69.0658 95.2669 67.4474 96.6361 65.451 96.6361H32.918C30.9216 96.6361 29.3032 95.2669 29.3032 93.578V70.948Z" fill="#F3F3F3"/>
<path d="M29.3032 108.868C29.3032 107.18 30.9216 105.81 32.918 105.81H65.451C67.4474 105.81 69.0658 107.18 69.0658 108.868V131.498C69.0658 133.187 67.4474 134.557 65.451 134.557H32.918C30.9216 134.557 29.3032 133.187 29.3032 131.498V108.868Z" fill="#F3F3F3"/>
<path d="M76.2953 70.948C76.2953 69.2591 77.9137 67.8899 79.9101 67.8899H112.443C114.439 67.8899 116.058 69.2591 116.058 70.948V86.8501C116.058 88.5391 114.439 89.9082 112.443 89.9082H79.9101C77.9137 89.9082 76.2953 88.5391 76.2953 86.8501V70.948Z" fill="#F3F3F3"/>
<path d="M76.2953 99.0826C76.2953 97.3936 77.9137 96.0245 79.9101 96.0245H112.443C114.439 96.0245 116.058 97.3936 116.058 99.0826V117.431C116.058 119.12 114.439 120.489 112.443 120.489H79.9101C77.9137 120.489 76.2953 119.12 76.2953 117.431V99.0826Z" fill="#F3F3F3"/>
<path d="M123.287 70.948C123.287 69.2591 124.906 67.8899 126.902 67.8899H159.435C161.432 67.8899 163.05 69.2591 163.05 70.948V111.009C163.05 112.698 161.432 114.067 159.435 114.067H126.902C124.906 114.067 123.287 112.698 123.287 111.009V70.948Z" fill="#F3F3F3"/>
<path d="M123.287 123.242C123.287 121.553 124.906 120.183 126.902 120.183H159.435C161.432 120.183 163.05 121.553 163.05 123.242V148.624C163.05 150.313 161.432 151.682 159.435 151.682H126.902C124.906 151.682 123.287 150.313 123.287 148.624V123.242Z" fill="#F3F3F3"/>
<path d="M170.279 70.948C170.279 69.2591 171.898 67.8899 173.894 67.8899H206.427C208.424 67.8899 210.042 69.2591 210.042 70.948V89.9082C210.042 91.5972 208.424 92.9664 206.427 92.9664H173.894C171.898 92.9664 170.279 91.5972 170.279 89.9082V70.948Z" fill="#F3F3F3"/>
<path d="M170.279 102.141C170.279 100.452 171.898 99.0826 173.894 99.0826H206.427C208.424 99.0826 210.042 100.452 210.042 102.141V121.101C210.042 122.79 208.424 124.159 206.427 124.159H173.894C171.898 124.159 170.279 122.79 170.279 121.101V102.141Z" fill="#F3F3F3"/>
<path d="M217.272 70.948C217.272 69.2591 218.89 67.8899 220.886 67.8899H253.419C255.416 67.8899 257.034 69.2591 257.034 70.948V106.116C257.034 107.805 255.416 109.174 253.419 109.174H220.886C218.89 109.174 217.272 107.805 217.272 106.116V70.948Z" fill="#F3F3F3"/>
<rect x="68.3428" width="16.2665" height="30.8869" rx="8.13325" fill="#5B5B5B"/>
<rect x="111.358" width="16.2665" height="30.8869" rx="8.13325" fill="#5B5B5B"/>
<rect x="154.375" width="16.2665" height="30.8869" rx="8.13325" fill="#5B5B5B"/>
<rect x="197.39" width="16.2665" height="30.8869" rx="8.13325" fill="#5B5B5B"/>
<defs>
<filter id="filter0_d_404_1086" x="0" y="15.5964" width="282" height="192.404" filterUnits="userSpaceOnUse" color-interpolation-filters="sRGB">
<feFlood flood-opacity="0" result="BackgroundImageFix"/>
<feColorMatrix in="SourceAlpha" type="matrix" values="0 0 0 0 0 0 0 0 0 0 0 0 0 0 0 0 0 0 127 0" result="hardAlpha"/>
<feOffset dy="4"/>
<feGaussianBlur stdDeviation="2"/>
<feComposite in2="hardAlpha" operator="out"/>
<feColorMatrix type="matrix" values="0 0 0 0 0 0 0 0 0 0 0 0 0 0 0 0 0 0 0.25 0"/>
<feBlend mode="normal" in2="BackgroundImageFix" result="effect1_dropShadow_404_1086"/>
<feBlend mode="normal" in="SourceGraphic" in2="effect1_dropShadow_404_1086" result="shape"/>
</filter>
<linearGradient id="paint0_linear_404_1086" x1="222" y1="29" x2="170.5" y2="187.5" gradientUnits="userSpaceOnUse">
<stop stop-color="#D6EBDB"/>
<stop offset="1" stop-color="#6AAFA7"/>
</linearGradient>
</defs>
</svg>
